<?xml version="1.0" encoding="utf-8"?>
<!-- Generator: Adobe Illustrator 16.0.0, SVG Export Plug-In . SVG Version: 6.00 Build 0)  -->
<!DOCTYPE svg PUBLIC "-//W3C//DTD SVG 1.1//EN" "http://www.w3.org/Graphics/SVG/1.1/DTD/svg11.dtd">
<svg version="1.1" id="레이어_1" xmlns="http://www.w3.org/2000/svg" xmlns:xlink="http://www.w3.org/1999/xlink" x="0px"
	 y="0px" width="393.258px" height="86.671px" viewBox="0 0 393.258 86.671" enable-background="new 0 0 393.258 86.671"
	 xml:space="preserve">
<g>
	<g>
		<path fill="#00326D" d="M27.799,28.256v28.44l15.871,6.609l15.765-6.712V28.256H27.799z M54.933,55.448l-9.429-9.428l-9.385,9.386
			l-3.836-3.835L43.59,40.265l5.552,5.558v-7.391H37.76l-5.594-5.833h22.768V55.448L54.933,55.448z"/>
		<path fill="#00326D" d="M43.796,65.26l-17.801-7.564l0.033-31.357h35.205v31.43L43.796,65.26z M26.904,57.099l16.884,7.178
			l16.54-7.102V27.248H26.935L26.904,57.099z"/>
		<path fill="#00326D" d="M43.616,0.992c-23.384,0-42.34,18.956-42.34,42.342c0,23.383,18.956,42.344,42.34,42.344
			c23.384,0,42.341-18.961,42.341-42.344C85.957,19.949,67.001,0.992,43.616,0.992 M43.616,71.905
			c-15.774,0-28.566-12.79-28.566-28.57c0-15.777,12.792-28.567,28.566-28.567c15.779,0,28.567,12.79,28.567,28.567
			C72.183,59.115,59.395,71.905,43.616,71.905"/>
		<path fill="#FFFFFF" d="M80.307,35.833c0,0.706-0.574,1.273-1.282,1.273c-0.706,0-1.276-0.567-1.276-1.273
			c0-0.707,0.571-1.281,1.276-1.281C79.733,34.552,80.307,35.127,80.307,35.833"/>
		<path fill="#FFFFFF" d="M9.609,35.833c0,0.706-0.572,1.273-1.277,1.273c-0.707,0-1.282-0.567-1.282-1.273
			c0-0.707,0.575-1.281,1.282-1.281C9.037,34.552,9.609,35.127,9.609,35.833"/>
		<path fill="#FFFFFF" d="M5.033,40.126l5.98,0.155l-0.063,2.244c-0.014,0.456-0.079,0.823-0.208,1.097
			c-0.128,0.268-0.319,0.484-0.577,0.629c-0.257,0.153-0.522,0.226-0.792,0.216c-0.257-0.01-0.495-0.083-0.716-0.228
			c-0.225-0.141-0.399-0.36-0.532-0.641c-0.119,0.356-0.304,0.631-0.567,0.82c-0.258,0.187-0.562,0.279-0.911,0.271
			c-0.28-0.015-0.541-0.074-0.775-0.199c-0.238-0.125-0.42-0.281-0.546-0.454c-0.124-0.175-0.215-0.4-0.275-0.661
			c-0.06-0.268-0.087-0.588-0.08-0.971L5.033,40.126z M5.718,40.931l-0.041,1.494c-0.006,0.256,0,0.431,0.015,0.536
			c0.03,0.182,0.082,0.337,0.151,0.463c0.073,0.123,0.182,0.229,0.327,0.311c0.141,0.082,0.311,0.129,0.501,0.137
			c0.217,0.003,0.418-0.049,0.583-0.163c0.167-0.108,0.292-0.261,0.361-0.464c0.07-0.198,0.112-0.489,0.123-0.871l0.04-1.383
			L5.718,40.931z M8.483,41.004l-0.036,1.294c-0.011,0.349,0.003,0.603,0.046,0.754c0.057,0.206,0.156,0.361,0.288,0.464
			c0.135,0.11,0.306,0.165,0.518,0.167c0.201,0.009,0.373-0.036,0.528-0.128c0.155-0.092,0.261-0.225,0.319-0.4
			c0.06-0.177,0.099-0.476,0.106-0.907l0.033-1.191L8.483,41.004z"/>
		<path fill="#FFFFFF" d="M11.38,48.93l0.101,0.79l-3.43,0.427c-0.594,0.072-1.079,0.066-1.442-0.031
			c-0.37-0.088-0.685-0.295-0.951-0.62c-0.263-0.331-0.432-0.776-0.501-1.347c-0.065-0.557-0.027-1.026,0.118-1.396
			c0.149-0.383,0.396-0.671,0.741-0.865c0.342-0.197,0.828-0.337,1.458-0.412l3.432-0.426l0.096,0.789l-3.422,0.423
			c-0.522,0.067-0.892,0.161-1.129,0.284c-0.231,0.128-0.396,0.314-0.501,0.564c-0.105,0.251-0.131,0.545-0.093,0.884
			c0.074,0.578,0.252,0.971,0.548,1.186c0.29,0.215,0.813,0.273,1.555,0.181L11.38,48.93z"/>
		<path fill="#FFFFFF" d="M7.609,51.03l0.268,0.699c-0.278,0.117-0.496,0.265-0.642,0.439c-0.152,0.175-0.244,0.413-0.285,0.707
			c-0.04,0.293-0.013,0.605,0.08,0.93c0.079,0.294,0.195,0.534,0.344,0.735c0.152,0.194,0.317,0.331,0.499,0.397
			c0.182,0.065,0.36,0.076,0.539,0.02c0.184-0.05,0.322-0.149,0.428-0.288c0.106-0.142,0.171-0.349,0.194-0.618
			c0.017-0.167,0.011-0.541-0.009-1.102c-0.023-0.563-0.006-0.969,0.046-1.214c0.066-0.314,0.185-0.572,0.355-0.767
			c0.182-0.196,0.4-0.33,0.664-0.403c0.29-0.083,0.584-0.077,0.887,0.018c0.297,0.092,0.555,0.278,0.779,0.559
			c0.218,0.279,0.381,0.612,0.495,0.996c0.12,0.431,0.159,0.827,0.112,1.19c-0.046,0.366-0.178,0.672-0.396,0.928
			c-0.218,0.245-0.495,0.426-0.826,0.533l-0.263-0.713c0.353-0.143,0.591-0.353,0.713-0.631c0.121-0.28,0.118-0.645-0.004-1.082
			c-0.128-0.465-0.313-0.775-0.538-0.937c-0.23-0.165-0.462-0.211-0.699-0.143c-0.207,0.057-0.356,0.183-0.448,0.363
			c-0.093,0.188-0.122,0.61-0.085,1.271c0.037,0.657,0.033,1.119-0.007,1.372c-0.059,0.379-0.185,0.684-0.376,0.911
			c-0.19,0.229-0.442,0.387-0.752,0.472c-0.304,0.087-0.62,0.078-0.937-0.018c-0.323-0.1-0.608-0.291-0.845-0.578
			c-0.244-0.288-0.429-0.635-0.541-1.044c-0.146-0.525-0.195-0.98-0.143-1.376c0.049-0.392,0.202-0.74,0.446-1.017
			C6.911,51.353,7.229,51.148,7.609,51.03"/>
		<path fill="#FFFFFF" d="M7.189,56.594l6.396-0.354l0.349,0.78l-4.451,4.683L9.11,60.88l1.366-1.38l-1.022-2.283l-1.92,0.14
			L7.189,56.594z M10.136,57.161l0.832,1.848l1.258-1.244c0.376-0.379,0.696-0.678,0.957-0.894c-0.382,0.085-0.772,0.147-1.174,0.17
			L10.136,57.161z"/>
		<polygon fill="#FFFFFF" points="9.843,62.29 14.863,59.043 15.3,59.727 13.063,64.913 17.007,62.366 17.423,63.003 12.397,66.251 
			11.955,65.568 14.196,60.376 10.252,62.93 		"/>
		<polygon fill="#FFFFFF" points="14.522,68.874 18.786,64.684 19.336,65.246 17.221,67.323 21.427,67.363 22.176,68.129 
			18.686,68.039 17.987,72.401 17.256,71.66 17.919,68.017 16.555,67.987 15.076,69.439 		"/>
		<path fill="#FFFFFF" d="M20.914,74.626l1.466-2.066l0.111-4.146l0.786,0.558l-0.083,2.152c-0.016,0.396-0.045,0.788-0.085,1.177
			c0.325-0.146,0.706-0.312,1.141-0.483l1.964-0.766l0.749,0.527l-3.937,1.439l-1.47,2.066L20.914,74.626z"/>
		<path fill="#FFFFFF" d="M30.811,73.445l0.714,0.348l-1.506,3.109c-0.257,0.547-0.527,0.943-0.804,1.203
			c-0.277,0.254-0.625,0.41-1.041,0.448c-0.412,0.05-0.881-0.052-1.402-0.304c-0.501-0.247-0.872-0.531-1.112-0.86
			c-0.235-0.326-0.344-0.69-0.319-1.089c0.022-0.389,0.171-0.874,0.445-1.449l1.504-3.109l0.716,0.349L26.5,75.194
			c-0.229,0.467-0.349,0.836-0.369,1.097c-0.019,0.263,0.046,0.508,0.201,0.733c0.148,0.221,0.382,0.408,0.687,0.554
			c0.528,0.25,0.954,0.314,1.293,0.185c0.341-0.132,0.671-0.535,0.996-1.208L30.811,73.445z"/>
		<polygon fill="#FFFFFF" points="30.231,79.686 31.944,73.955 32.719,74.188 34.385,79.59 35.729,75.089 36.458,75.306 
			34.742,81.039 33.968,80.804 32.303,75.402 30.957,79.906 		"/>
		<path fill="#FFFFFF" d="M39.23,79.38l0.089-0.695l2.513,0.313L41.557,81.2c-0.423,0.258-0.855,0.44-1.281,0.545
			c-0.433,0.103-0.865,0.125-1.294,0.072c-0.583-0.072-1.096-0.266-1.543-0.574c-0.443-0.31-0.759-0.719-0.944-1.218
			c-0.178-0.503-0.237-1.043-0.165-1.63c0.072-0.574,0.264-1.104,0.567-1.57c0.304-0.47,0.7-0.8,1.182-0.984
			c0.485-0.188,1.021-0.244,1.611-0.168c0.429,0.053,0.811,0.171,1.142,0.356c0.326,0.181,0.574,0.409,0.739,0.679
			c0.165,0.277,0.277,0.618,0.33,1.03l-0.732,0.106c-0.053-0.315-0.132-0.565-0.244-0.753c-0.109-0.196-0.285-0.35-0.515-0.485
			c-0.23-0.139-0.495-0.226-0.798-0.26c-0.353-0.046-0.673-0.031-0.952,0.044c-0.273,0.077-0.501,0.197-0.687,0.355
			c-0.184,0.155-0.329,0.335-0.448,0.538c-0.198,0.346-0.323,0.738-0.376,1.164c-0.066,0.531-0.033,0.985,0.106,1.364
			c0.139,0.378,0.37,0.677,0.696,0.894c0.327,0.219,0.683,0.35,1.076,0.399c0.34,0.043,0.683,0.021,1.02-0.072
			c0.34-0.093,0.607-0.198,0.792-0.327l0.135-1.109L39.23,79.38z"/>
		<path fill="#FFFFFF" d="M42.373,80.121l0.742-0.086c0.046,0.296,0.138,0.541,0.271,0.727c0.138,0.188,0.344,0.336,0.618,0.447
			c0.275,0.109,0.585,0.156,0.924,0.149c0.3-0.01,0.564-0.064,0.795-0.159c0.225-0.096,0.396-0.227,0.502-0.386
			c0.109-0.162,0.158-0.33,0.151-0.519c-0.003-0.188-0.063-0.349-0.178-0.483c-0.112-0.137-0.297-0.249-0.548-0.338
			c-0.162-0.057-0.521-0.141-1.073-0.258c-0.55-0.114-0.94-0.229-1.165-0.336c-0.29-0.14-0.512-0.319-0.656-0.535
			c-0.148-0.219-0.228-0.469-0.234-0.738c-0.007-0.308,0.07-0.588,0.23-0.855c0.165-0.27,0.407-0.476,0.732-0.623
			c0.324-0.146,0.687-0.225,1.09-0.239c0.444-0.013,0.837,0.047,1.181,0.18c0.343,0.136,0.606,0.333,0.798,0.607
			c0.192,0.272,0.297,0.584,0.323,0.933l-0.751,0.079c-0.052-0.38-0.205-0.655-0.442-0.845c-0.244-0.186-0.593-0.271-1.048-0.257
			c-0.482,0.016-0.829,0.116-1.041,0.296c-0.215,0.182-0.319,0.396-0.309,0.646c0.006,0.216,0.088,0.39,0.247,0.52
			c0.159,0.138,0.562,0.263,1.208,0.393c0.647,0.122,1.093,0.237,1.334,0.336c0.355,0.152,0.62,0.346,0.791,0.588
			c0.171,0.237,0.264,0.521,0.277,0.845c0.007,0.313-0.072,0.621-0.248,0.902c-0.175,0.29-0.428,0.517-0.761,0.685
			c-0.344,0.165-0.72,0.258-1.148,0.271c-0.542,0.015-0.994-0.05-1.367-0.195c-0.37-0.146-0.667-0.376-0.885-0.686
			C42.518,80.876,42.396,80.52,42.373,80.121"/>
		<path fill="#FFFFFF" d="M47.656,81.88l1.221-6.287l0.838-0.152l3.451,5.467l-0.889,0.153l-0.999-1.663l-2.469,0.44l-0.327,1.897
			L47.656,81.88z M48.93,79.16l1.993-0.353l-0.904-1.524c-0.273-0.462-0.488-0.841-0.633-1.146c-0.007,0.394-0.05,0.785-0.116,1.181
			L48.93,79.16z"/>
		<polygon fill="#FFFFFF" points="53.834,80.698 51.91,75.038 52.675,74.774 57.16,78.207 55.648,73.762 56.369,73.517 
			58.295,79.181 57.53,79.438 53.042,76.007 54.553,80.454 		"/>
		<path fill="#FFFFFF" d="M60.989,75.222l-0.334-0.614l2.229-1.206l1.056,1.958c-0.198,0.452-0.442,0.852-0.733,1.182
			c-0.288,0.334-0.623,0.604-1.003,0.812c-0.521,0.277-1.048,0.424-1.59,0.43c-0.545,0.004-1.037-0.142-1.479-0.445
			c-0.438-0.304-0.798-0.715-1.075-1.229c-0.277-0.512-0.428-1.051-0.456-1.612c-0.023-0.557,0.106-1.054,0.396-1.487
			c0.284-0.436,0.687-0.788,1.212-1.073c0.382-0.203,0.759-0.328,1.136-0.368c0.373-0.043,0.706-0.003,1,0.121
			c0.291,0.129,0.581,0.343,0.861,0.647l-0.537,0.514c-0.219-0.227-0.43-0.383-0.631-0.47c-0.2-0.093-0.436-0.127-0.701-0.101
			c-0.269,0.026-0.532,0.108-0.801,0.251c-0.316,0.171-0.566,0.369-0.747,0.594c-0.179,0.219-0.301,0.445-0.354,0.684
			c-0.06,0.236-0.075,0.47-0.052,0.698c0.04,0.396,0.165,0.79,0.37,1.17c0.254,0.469,0.544,0.818,0.877,1.046
			c0.33,0.227,0.694,0.341,1.086,0.323c0.39-0.013,0.758-0.112,1.106-0.298c0.304-0.164,0.567-0.382,0.792-0.652
			c0.224-0.271,0.376-0.512,0.453-0.723l-0.529-0.984L60.989,75.222z"/>
		<path fill="#FFFFFF" d="M68.891,69.819l0.73-0.373c0.297,0.604,0.396,1.174,0.289,1.715c-0.102,0.538-0.389,1.011-0.864,1.418
			c-0.488,0.421-0.97,0.661-1.449,0.731c-0.478,0.063-0.957-0.027-1.442-0.268c-0.481-0.237-0.911-0.568-1.284-1.011
			c-0.407-0.467-0.673-0.955-0.796-1.462c-0.118-0.507-0.096-0.996,0.083-1.467c0.174-0.467,0.462-0.874,0.864-1.224
			c0.453-0.388,0.936-0.599,1.44-0.636c0.512-0.037,1.004,0.105,1.485,0.416l-0.472,0.65c-0.39-0.24-0.745-0.351-1.076-0.323
			c-0.33,0.021-0.647,0.162-0.95,0.421c-0.347,0.299-0.564,0.631-0.661,1.002c-0.085,0.369-0.059,0.737,0.085,1.095
			c0.152,0.366,0.353,0.696,0.611,0.993c0.333,0.389,0.681,0.674,1.037,0.864c0.363,0.195,0.722,0.257,1.078,0.195
			c0.365-0.063,0.681-0.211,0.958-0.448c0.337-0.288,0.533-0.63,0.601-1.025C69.225,70.687,69.14,70.264,68.891,69.819"/>
		<path fill="#FFFFFF" d="M69.224,68.426c-0.758-0.646-1.184-1.341-1.271-2.116c-0.087-0.767,0.137-1.473,0.679-2.123
			c0.353-0.421,0.772-0.717,1.261-0.891c0.485-0.172,0.982-0.194,1.498-0.068c0.51,0.12,0.993,0.376,1.453,0.758
			c0.468,0.393,0.804,0.832,1.014,1.331c0.214,0.491,0.266,0.989,0.168,1.491c-0.101,0.505-0.315,0.953-0.648,1.354
			c-0.363,0.431-0.789,0.729-1.28,0.896c-0.497,0.168-0.998,0.186-1.501,0.056C70.091,68.989,69.628,68.759,69.224,68.426
			 M69.76,67.806c0.554,0.461,1.114,0.676,1.683,0.642c0.568-0.025,1.038-0.266,1.413-0.717c0.383-0.457,0.535-0.968,0.458-1.532
			c-0.072-0.565-0.405-1.094-1-1.586c-0.368-0.316-0.752-0.523-1.135-0.629c-0.383-0.103-0.749-0.1-1.109,0.014
			c-0.354,0.114-0.659,0.322-0.917,0.625c-0.356,0.431-0.519,0.922-0.482,1.483C68.707,66.663,69.07,67.228,69.76,67.806"/>
		<polygon fill="#FFFFFF" points="75.971,64.554 70.837,61.493 71.239,60.819 75.774,63.511 77.278,60.984 77.885,61.347 		"/>
		<polygon fill="#FFFFFF" points="78.261,60.577 72.793,58.149 73.119,57.428 77.938,59.569 79.133,56.875 79.777,57.161 		"/>
		<polygon fill="#FFFFFF" points="80.11,56.276 74.373,54.589 75.587,50.436 76.268,50.638 75.271,54.03 77.031,54.542 
			77.964,51.366 78.637,51.565 77.704,54.74 79.658,55.31 80.691,51.789 81.37,51.988 		"/>
		<path fill="#FFFFFF" d="M79.658,47.756l-0.7-0.088l0.319-2.515l2.198,0.279c0.259,0.425,0.441,0.85,0.542,1.281
			c0.105,0.43,0.129,0.863,0.076,1.293c-0.076,0.581-0.268,1.093-0.577,1.542c-0.304,0.444-0.716,0.76-1.221,0.942
			c-0.501,0.179-1.044,0.241-1.626,0.164c-0.574-0.075-1.101-0.26-1.572-0.57c-0.469-0.304-0.794-0.698-0.979-1.179
			c-0.186-0.488-0.242-1.024-0.166-1.614c0.053-0.436,0.168-0.806,0.353-1.137c0.182-0.33,0.412-0.578,0.683-0.745
			c0.271-0.164,0.614-0.275,1.03-0.321l0.104,0.729c-0.316,0.049-0.565,0.13-0.75,0.245c-0.196,0.107-0.356,0.28-0.488,0.515
			c-0.137,0.226-0.226,0.495-0.261,0.794c-0.049,0.36-0.029,0.676,0.046,0.952c0.075,0.276,0.191,0.507,0.349,0.685
			c0.156,0.188,0.341,0.337,0.539,0.451c0.35,0.199,0.739,0.324,1.168,0.377c0.527,0.069,0.983,0.032,1.359-0.103
			c0.379-0.138,0.68-0.37,0.898-0.696c0.214-0.326,0.349-0.684,0.396-1.076c0.046-0.34,0.02-0.684-0.07-1.023
			c-0.088-0.336-0.2-0.596-0.325-0.784l-1.104-0.144L79.658,47.756z"/>
		<polygon fill="#FFFFFF" points="82.314,44.284 76.334,44.458 76.209,40.139 76.911,40.116 77.017,43.652 78.848,43.596 
			78.747,40.289 79.448,40.268 79.548,43.574 81.585,43.516 81.476,39.843 82.182,39.822 		"/>
		<path fill="#FFFFFF" d="M7.519,28.695l2.611,1.275c0.721,0.351,1.065-0.516,1.065-0.516l2.765-5.671l-3.421-1.647l-0.931,1.222
			l1.303,0.636l-1.844,3.783L7.826,27.17l-0.858,1.754l0.367,0.159L7.519,28.695z M9.724,28.133l1.855-3.802l1.003,0.492
			l-1.858,3.809L9.724,28.133z"/>
		<polygon fill="#FFFFFF" points="11.093,31.362 11.746,31.707 13.411,28.349 15.625,29.427 16.265,28.115 14.008,27.019 
			15.725,23.498 15.083,23.184 		"/>
		<path fill="#FFFFFF" d="M18.222,16.563c1.144,0.413,2.947-0.119,2.947-0.119l0.059-0.726c-2.422,0.314-3.155-0.465-3.155-0.465
			l-0.74-0.786l-1.418,1.281l0.225,0.215l0.268-0.241l0.478,0.53c0.808,0.974,0.166,3.257,0.166,3.257l0.729-0.016
			C18.463,18.077,18.222,16.563,18.222,16.563"/>
		<path fill="#FFFFFF" d="M23.438,12.538l-0.543-0.601l-0.693,0.62l-1.265-1.399l-1.237,0.73l4.924,5.464l-3.317,2.991l-1.521-1.689
			l-1.082,0.978l1.567,1.739c0,0,0.377,0.528,1.049-0.076l5.184-4.669l-0.465-0.515l-0.35,0.32l-2.944-3.265L23.438,12.538z"/>
		<path fill="#FBFBFC" d="M30.865,6.973L29.373,7.24l-3.518,1.42l0.284,0.713l3.122-1.262c0.066,1.935-2.383,3.667-2.383,3.667
			l0.701,0.387C30.907,10.148,30.865,6.973,30.865,6.973"/>
		<path fill="#FBFBFC" d="M35.865,11.006h0.003l-2.259-5.584l-1.373,0.301l0.502,1.24l-1.148,0.464l0.291,0.731l1.154-0.462
			l0.197,0.484l-1.132,0.459l0.307,0.75l1.128-0.455l0.548,1.36c-0.68,0.008-1.481,0.174-2.29,0.501
			c-1.902,0.769-3.136,2.136-2.766,3.052c0.37,0.916,2.207,1.039,4.105,0.271c1.894-0.766,3.135-2.132,2.759-3.049
			C35.888,11.049,35.874,11.026,35.865,11.006 M32.792,13.277c-1.122,0.459-2.182,0.459-2.365,0.003
			c-0.185-0.452,0.581-1.185,1.706-1.643c1.125-0.453,2.184-0.456,2.37-0.004C34.679,12.086,33.92,12.824,32.792,13.277"/>
		<path fill="#FCFDFD" d="M42.058,6.458c0.572,1.072,2.267,1.888,2.267,1.888l0.526-0.504c-2.007-1.384-2.032-2.459-2.032-2.459
			l-0.021-1.072h-1.913l0.025,0.307h0.363v0.715c-0.046,1.267-2.059,2.531-2.059,2.531l0.551,0.483
			C41.226,7.749,42.058,6.458,42.058,6.458"/>
		<path fill="#FCFDFD" d="M47.646,6.987h1.052V6.198h-1.052V4.27l-1.383-0.237v4.936c-0.641-0.248-1.442-0.399-2.316-0.399
			c-2.046,0-3.703,0.806-3.703,1.796c0,0.987,1.656,1.789,3.703,1.789c2.046,0,3.699-0.802,3.699-1.789c0-0.027,0-0.054-0.004-0.072
			h0.004V6.987z M43.947,11.247c-1.218,0-2.2-0.396-2.2-0.881c0-0.489,0.981-0.887,2.2-0.887c1.214,0,2.195,0.398,2.195,0.887
			C46.142,10.851,45.161,11.247,43.947,11.247"/>
		<path fill="#FFFFFF" d="M60.598,7.659l-1.069,2.652l-0.68-0.274l0.971-2.412l-1.222-0.795l-2.051,5.083L53.5,10.685L55.1,6.725
			l2.522,1.016l0.296-0.736l-3.903-1.576l-1.877,4.659c0,0-0.434,0.637,0.63,1.093l3.501,1.415l-0.681,1.693l1.323,0.534
			l1.684-4.161l0.683,0.277l-1.694,4.179l1.328,0.538l2.907-7.205L60.598,7.659z"/>
		<path fill="#FDFDFF" d="M69.42,16.926c0.317-0.329,0.446-0.782,0.4-1.291l0.614,0.594l0.538-0.557l-1.713-1.655l0.416-0.428
			l-1.017-0.981l-0.414,0.43l-1.642-1.583l-0.538,0.554l0.601,0.581c-0.501-0.026-0.956,0.116-1.273,0.442
			c-0.745,0.775-0.453,2.274,0.66,3.351C67.166,17.454,68.672,17.702,69.42,16.926 M66.177,13.838
			c0.469-0.485,1.365-0.383,2.01,0.237c0.636,0.614,0.776,1.511,0.303,1.999c-0.468,0.485-1.369,0.377-2.01-0.237
			C65.844,15.22,65.708,14.326,66.177,13.838"/>
		<polygon fill="#FDFDFF" points="72.113,18.982 71.427,18.319 72.916,16.779 72.085,15.586 68.51,19.285 64.595,15.504 
			64.127,15.989 68.037,19.771 66.492,21.371 67.522,22.365 70.945,18.816 71.628,19.48 		"/>
		<polygon fill="#FFFFFF" points="75.192,30.73 80.262,28.262 79.906,26.921 77.213,21.395 76.605,21.695 79.268,27.156 
			74.569,29.448 74.1,28.487 77.113,27.011 76.487,25.725 73.469,27.2 73.001,26.233 76.014,24.763 75.387,23.477 72.374,24.948 
			71.733,23.636 71.13,23.933 74.862,31.595 75.472,31.302 		"/>
	</g>
	<g>
		<path fill="#231815" d="M102.021,38.72v12.614c0,3.504,4.048,3.194,4.048,3.194h27.41l-0.077-16.508l-6.541-1.324v6.31h-18.299
			v-5.999h-8.487l0.078,1.713L102.021,38.72L102.021,38.72z M108.418,46.249h18.379v4.868h-18.416L108.418,46.249z"/>
		<polygon fill="#231815" points="98.413,57.748 98.31,60.966 114.611,61.069 114.611,71.763 120.943,71.763 120.943,60.861 
			137.968,60.861 137.968,57.748 		"/>
		<path fill="#231815" d="M151.928,47.505c2.492,4.672,9.864,8.202,9.864,8.202l2.282-2.181c-8.722-6.021-8.824-10.689-8.824-10.689
			l-0.103-4.673h-8.305l0.101,1.35h1.562v3.114c-0.209,5.5-8.928,11.006-8.928,11.006l2.383,2.076
			C148.294,53.113,151.928,47.505,151.928,47.505"/>
		<path fill="#231815" d="M180.479,49.686v-3.529h-4.049v-8.202l-6.125-1.247v31.979h-19.417v-9.865h-6.33v10.173
			c0,0-0.316,2.802,3.631,2.802h30.316v-3.008h-2.076V49.686H180.479z"/>
		<path fill="#231815" d="M206.746,40.136l-6.438-1.351h-16.505v3.324h14.636c-2.908,7.884-15.573,10.898-15.573,10.898l2.179,2.698
			C201.762,53.008,206.746,40.136,206.746,40.136"/>
		<path fill="#231815" d="M220.33,64.525l0.015,0.006V38.367l-6.021-1.035v5.813h-5.399v3.422h5.399v2.288h-5.292v3.528h5.292v6.389
			c-2.756-1.073-6.259-1.714-10.07-1.714c-8.887,0-16.092,3.484-16.092,7.782c0,4.302,7.206,7.789,16.092,7.789
			c8.887,0,16.091-3.487,16.091-7.789C220.345,64.737,220.337,64.63,220.33,64.525 M204.254,68.684
			c-5.273,0-9.553-1.718-9.553-3.843c0-2.119,4.28-3.841,9.553-3.841c5.274,0,9.551,1.721,9.551,3.841
			C213.805,66.966,209.528,68.684,204.254,68.684"/>
		<path fill="#231815" d="M236.749,47.868c2.494,4.674,9.86,8.201,9.86,8.201l2.286-2.177c-8.72-6.024-8.822-10.695-8.822-10.695
			l-0.104-4.669h-8.305l0.1,1.348h1.56v3.112c-0.208,5.505-8.931,11.005-8.931,11.005l2.391,2.077
			C233.116,53.474,236.749,47.868,236.749,47.868"/>
		<path fill="#231815" d="M261.042,50.154h4.57v-3.427h-4.57v-8.358l-6.021-1.036v21.44c-2.761-1.075-6.259-1.715-10.072-1.715
			c-8.886,0-16.089,3.486-16.089,7.787s7.204,7.789,16.089,7.789c8.887,0,16.093-3.487,16.093-7.789c0-0.107-0.008-0.213-0.014-0.32
			l0.014,0.006V50.154z M244.949,68.686c-5.272,0-9.552-1.721-9.552-3.841c0-2.122,4.28-3.845,9.552-3.845
			c5.276,0,9.549,1.723,9.549,3.845C254.499,66.965,250.226,68.686,244.949,68.686"/>
		<path fill="#231815" d="M301.195,37.218v12.431h-3.19V38.343l-6.216-1.212v23.825h-14.283v-18.56h11.828v-3.455h-18.305v21.844
			c0,0-0.688,3.279,4.321,3.365h16.438v7.944h6.216V52.583h3.19v19.596h6.219V38.426L301.195,37.218z"/>
		<path fill="#231815" d="M337.767,49.543c0-1.984-0.989-3.801-2.639-5.246h3.712v-3.369h-10.36v-2.585h-6.131v2.585h-9.928v3.369
			h3.627c-1.649,1.444-2.641,3.262-2.641,5.246c0,4.672,5.453,8.462,12.181,8.462C332.317,58.006,337.767,54.215,337.767,49.543
			 M318.295,49.675c0-2.942,3.132-5.33,6.992-5.33c3.859,0,6.992,2.388,6.992,5.33c0,2.939-3.133,5.323-6.992,5.323
			C321.427,54.997,318.295,52.614,318.295,49.675"/>
		<polygon fill="#231815" points="352.392,47.836 348.244,47.836 348.244,38.513 342.034,37.303 342.034,59.664 318.38,59.664 
			318.38,62.597 342.034,62.597 342.034,72.267 348.244,72.267 348.244,50.859 352.392,50.859 		"/>
		<polygon fill="#231815" points="389.232,65.495 389.232,41.002 383.324,39.838 356.594,39.838 356.594,42.773 383.016,42.773 
			383.016,65.495 378.352,65.495 378.352,50.924 372.136,50.924 372.136,65.495 367.474,65.495 367.474,50.924 361.26,50.924 
			361.26,65.495 354.916,65.495 354.916,68.434 391.981,68.434 391.981,65.495 		"/>
		<path fill="#005286" d="M109.411,23.566l-1.034,1.462c-0.657-0.332-1.339-0.89-2.043-1.671c-0.707-0.781-1.165-1.504-1.377-2.168
			c-0.169,0.749-0.58,1.533-1.232,2.353c-0.653,0.82-1.381,1.428-2.186,1.823l-1.113-1.397c2.363-1.275,3.546-3.444,3.546-6.506
			v-0.386h-2.831v-1.494h7.522v1.494h-2.735v0.37C105.928,20.315,107.089,22.356,109.411,23.566 M112.273,28.433h-1.861V14.119
			h1.861V28.433z"/>
		<path fill="#005286" d="M115.478,20.795c-0.694-0.627-1.042-1.438-1.042-2.435c0-0.995,0.347-1.829,1.042-2.498
			c0.695-0.669,1.556-1.004,2.584-1.004c1.028,0,1.893,0.335,2.592,1.004c0.7,0.669,1.051,1.503,1.051,2.498
			c0,0.996-0.345,1.807-1.034,2.435c-0.689,0.626-1.56,0.939-2.608,0.939C117.033,21.735,116.173,21.421,115.478,20.795
			 M116.154,23.051h9.876v5.398h-1.861v-3.903h-8.015V23.051z M116.234,18.344c0,0.568,0.167,1.032,0.5,1.391
			c0.334,0.358,0.776,0.536,1.328,0.536c0.551,0,1-0.181,1.344-0.546c0.345-0.364,0.517-0.824,0.517-1.381
			c0-0.547-0.167-1.003-0.501-1.374c-0.334-0.369-0.786-0.554-1.359-0.554c-0.541,0-0.98,0.188-1.32,0.562
			C116.403,17.354,116.234,17.809,116.234,18.344 M122.134,20.771l0.048-1.575h1.987v-1.75h-1.987l-0.048-1.575h2.035v-1.751h1.861
			v8.193h-1.861v-1.542L122.134,20.771L122.134,20.771z"/>
		<path fill="#005286" d="M140.868,23.838l-1.066,1.414c-0.626-0.385-1.268-0.972-1.924-1.759c-0.658-0.786-1.104-1.539-1.336-2.257
			c-0.233,0.814-0.671,1.625-1.312,2.434c-0.642,0.808-1.333,1.416-2.075,1.824l-1.114-1.381c2.343-1.542,3.515-3.743,3.515-6.603
			v-2.185h1.908v2.089c0,1.392,0.297,2.635,0.891,3.726C138.948,22.232,139.785,23.132,140.868,23.838 M143.986,28.433h-1.877
			v-7.888h-2.561v-1.591h2.561v-4.835h1.877V28.433z"/>
		<path fill="#005286" d="M153.4,24.9h-6.695v-9.623h1.844v3.438h2.975v-3.47h1.875L153.4,24.9L153.4,24.9z M151.524,20.193h-2.975
			v3.229h2.975V20.193z M157.71,28.433h-1.845V14.119h1.845V28.433z"/>
		<path fill="#005286" d="M172.564,26.57h-12.802v-1.494h12.802V26.57z M172.294,20.706l-0.938,1.462
			c-1.049-0.246-2.082-0.723-3.101-1.43c-1.017-0.707-1.718-1.504-2.1-2.394c-0.35,0.911-1.042,1.727-2.075,2.451
			c-1.036,0.722-2.082,1.201-3.143,1.438l-0.875-1.526c0.806-0.118,1.593-0.385,2.362-0.804c0.769-0.417,1.423-0.982,1.963-1.694
			c0.541-0.713,0.811-1.47,0.811-2.272v-0.949h1.941v0.949c0,0.481,0.108,0.956,0.325,1.421c0.217,0.466,0.506,0.881,0.867,1.245
			c0.359,0.364,0.766,0.693,1.216,0.987c0.451,0.295,0.909,0.536,1.376,0.723C171.392,20.5,171.847,20.631,172.294,20.706"/>
		<path fill="#005286" d="M181.773,20.884l-1.066,1.462c-0.562-0.226-1.159-0.629-1.789-1.212c-0.631-0.584-1.089-1.192-1.375-1.823
			c-0.212,0.706-0.636,1.388-1.272,2.048c-0.636,0.657-1.294,1.122-1.973,1.389l-1.113-1.478c1.028-0.375,1.85-1.003,2.465-1.887
			c0.616-0.885,0.923-1.867,0.923-2.948v-1.51h1.908v1.412c0,1.062,0.328,2.012,0.986,2.853
			C180.124,20.029,180.891,20.593,181.773,20.884 M184.953,28.063h-9.367v-4.643h1.86v3.165h7.507L184.953,28.063L184.953,28.063z
			 M184.603,14.119v4.097h2.02v1.558h-2.02v4.723h-1.862V14.119H184.603z"/>
		<path fill="#005286" d="M187.37,18.185c0-0.986,0.348-1.804,1.042-2.45c0.695-0.647,1.572-0.972,2.632-0.972
			c1.061,0,1.934,0.322,2.624,0.964c0.69,0.643,1.034,1.461,1.034,2.458c0,0.995-0.342,1.791-1.025,2.385s-1.562,0.892-2.632,0.892
			c-1.081,0-1.963-0.297-2.648-0.892C187.713,19.976,187.37,19.18,187.37,18.185 M189.232,18.153c0,0.546,0.168,0.974,0.508,1.285
			c0.34,0.31,0.774,0.465,1.304,0.465c0.52,0,0.952-0.155,1.296-0.465c0.344-0.311,0.517-0.739,0.517-1.285
			c0-0.579-0.169-1.03-0.509-1.358c-0.339-0.326-0.774-0.49-1.304-0.49c-0.53,0-0.964,0.167-1.304,0.505
			C189.401,17.149,189.232,17.595,189.232,18.153 M199.011,28.256h-9.352v-5.719h1.877v1.414h5.598v-1.445h1.876V28.256z
			 M197.135,25.396h-5.598v1.367h5.598V25.396z M198.997,21.799h-1.861v-2.924h-1.877v-1.509h1.877v-3.246h1.861V21.799z"/>
		<path fill="#005286" d="M212.673,25.301h-1.861v-2.347h-5.598v-1.478h12.802v1.478h-5.343V25.301z M216.378,20.385h-9.525v-5.688
			h1.861v1.478h5.82v-1.494h1.844V20.385z M216.522,28.048h-9.67v-4.017h1.861v2.539h7.809V28.048z M214.533,17.638h-5.82v1.253
			h5.82V17.638z"/>
		<path fill="#005286" d="M219.082,20.224c0-1.532,0.329-2.768,0.987-3.711c0.655-0.942,1.553-1.414,2.687-1.414
			c1.146,0,2.044,0.472,2.696,1.414c0.652,0.943,0.978,2.179,0.978,3.711c0,1.521-0.325,2.749-0.978,3.687
			c-0.652,0.938-1.55,1.407-2.696,1.407c-1.134,0-2.031-0.469-2.687-1.407C219.411,22.974,219.082,21.745,219.082,20.224
			 M224.649,20.224c0-1.113-0.175-1.994-0.526-2.642c-0.35-0.649-0.805-0.972-1.368-0.972c-0.541,0-0.986,0.323-1.336,0.972
			c-0.35,0.648-0.524,1.529-0.524,2.642c0,1.103,0.174,1.976,0.524,2.619c0.35,0.642,0.795,0.963,1.336,0.963
			c0.562,0,1.018-0.322,1.368-0.963C224.474,22.199,224.649,21.327,224.649,20.224 M232.029,17.477v1.56h-1.99v2.891h1.99v1.558
			h-1.99v4.948h-1.86V14.12h1.86v3.356H232.029z"/>
		<path fill="#005286" d="M249.712,22.232h-5.503v0.916c1.315,0.084,2.335,0.355,3.063,0.811c0.726,0.456,1.088,1.042,1.088,1.759
			c0,0.803-0.442,1.433-1.327,1.887c-0.886,0.456-2.129,0.684-3.729,0.684c-1.591,0-2.83-0.228-3.715-0.684
			c-0.886-0.454-1.328-1.083-1.328-1.887c0-0.718,0.357-1.304,1.074-1.759c0.715-0.456,1.72-0.726,3.014-0.811v-0.916h-5.44v-1.51
			h12.804V22.232L249.712,22.232z M249.061,18.714l-0.796,1.494c-1.039-0.085-2.023-0.379-2.95-0.884
			c-0.928-0.503-1.598-1.097-2.011-1.783c-0.362,0.708-0.995,1.304-1.901,1.791c-0.906,0.488-1.921,0.779-3.046,0.876
			c-0.095-0.193-0.236-0.46-0.421-0.804c-0.185-0.342-0.305-0.563-0.357-0.659c1.134-0.053,2.129-0.299,2.982-0.739
			c0.853-0.44,1.402-1.013,1.647-1.718h-3.977v-1.494h10.21v1.494h-3.992c0.274,0.685,0.861,1.25,1.758,1.695
			C247.1,18.428,248.052,18.672,249.061,18.714 M246.467,25.734c0-0.353-0.286-0.627-0.858-0.827
			c-0.572-0.199-1.346-0.298-2.324-0.298c-0.964,0-1.728,0.1-2.29,0.298s-0.842,0.473-0.842,0.827c0,0.343,0.28,0.61,0.842,0.804
			c0.563,0.193,1.325,0.288,2.29,0.288c0.978,0,1.751-0.096,2.324-0.288C246.181,26.344,246.467,26.077,246.467,25.734"/>
		<path fill="#005286" d="M251.158,16.578v-1.542h7.475v1.542h-2.72c0.063,0.963,0.396,1.788,0.993,2.474
			c0.601,0.686,1.318,1.168,2.155,1.446l-1.016,1.477c-0.584-0.226-1.17-0.593-1.758-1.109c-0.588-0.515-1.026-1.081-1.313-1.703
			c-0.212,0.674-0.636,1.317-1.272,1.928c-0.636,0.609-1.31,1.044-2.02,1.3l-1.098-1.478c1.006-0.375,1.819-0.937,2.434-1.686
			c0.615-0.75,0.942-1.634,0.987-2.651L251.158,16.578L251.158,16.578z M262.386,28.257h-9.416v-5.286h9.416V28.257z
			 M260.526,24.417h-5.71v2.377h5.71V24.417z M262.386,22.281h-1.861v-3.198h-2.099v-1.509h2.099V14.12h1.861V22.281z"/>
		<path fill="#EF8200" d="M270.048,26.506v-1.703l1.418-1.592c0.645-0.706,1.133-1.26,1.464-1.662
			c0.333-0.401,0.661-0.869,0.982-1.405c0.322-0.536,0.482-0.98,0.482-1.334c0-0.556-0.164-0.937-0.489-1.14
			c-0.327-0.203-0.818-0.305-1.475-0.305c-0.581,0-1.256,0.17-2.023,0.514l-0.234-2.073c0.821-0.428,1.896-0.643,3.227-0.643
			c2.649,0,3.974,1.065,3.974,3.198c0,0.226-0.027,0.458-0.078,0.7c-0.053,0.239-0.13,0.48-0.233,0.721
			c-0.105,0.241-0.21,0.472-0.32,0.691c-0.107,0.219-0.249,0.45-0.42,0.69s-0.314,0.445-0.43,0.611
			c-0.113,0.166-0.268,0.361-0.458,0.586c-0.193,0.225-0.33,0.385-0.413,0.482c-0.083,0.096-0.205,0.231-0.366,0.41
			c-0.161,0.175-0.248,0.271-0.258,0.28l-0.717,0.787h3.568v2.185H270.048z"/>
		<path fill="#EF8200" d="M282.918,26.715c-1.36,0-2.465-0.45-3.312-1.35c-0.847-0.899-1.27-2.275-1.27-4.129v-0.352
			c0-0.996,0.127-1.872,0.381-2.627c0.255-0.754,0.604-1.351,1.052-1.79s0.94-0.767,1.48-0.98c0.541-0.214,1.123-0.32,1.745-0.32
			c1.329,0,2.433,0.469,3.311,1.406c0.877,0.937,1.317,2.353,1.317,4.247v0.29c0,1.006-0.131,1.884-0.389,2.634
			c-0.261,0.75-0.613,1.334-1.061,1.751c-0.446,0.418-0.941,0.726-1.487,0.924C284.14,26.615,283.552,26.715,282.918,26.715
			 M282.949,24.562c0.591,0,1.021-0.262,1.285-0.787c0.266-0.524,0.397-1.387,0.397-2.586v-0.354c0-2.346-0.555-3.518-1.668-3.518
			c-0.57,0-0.983,0.268-1.238,0.804c-0.254,0.536-0.381,1.402-0.381,2.602v0.337c0,1.209,0.126,2.096,0.375,2.659
			C281.969,24.281,282.378,24.562,282.949,24.562"/>
		<polygon fill="#EF8200" points="288.107,28.144 291.815,14.794 294.122,14.794 290.382,28.144 		"/>
		<path fill="#EF8200" d="M299.013,26.73c-1.454,0-2.556-0.27-3.303-0.811c-0.748-0.541-1.122-1.266-1.122-2.176
			c0-0.653,0.177-1.225,0.53-1.711c0.353-0.487,0.836-0.859,1.449-1.116c-0.572-0.311-0.994-0.661-1.271-1.052
			c-0.274-0.392-0.412-0.902-0.412-1.535c0-0.962,0.377-1.726,1.13-2.289c0.753-0.562,1.774-0.844,3.062-0.844
			c1.31,0,2.314,0.252,3.016,0.755c0.7,0.503,1.052,1.21,1.052,2.12c0,0.558-0.145,1.063-0.438,1.519
			c-0.289,0.455-0.715,0.795-1.278,1.02c1.424,0.557,2.136,1.478,2.136,2.763c0,1.039-0.396,1.859-1.191,2.458
			C301.576,26.431,300.458,26.73,299.013,26.73 M298.936,24.786c0.593,0,1.041-0.118,1.347-0.354
			c0.308-0.234,0.461-0.546,0.461-0.931c0-0.44-0.182-0.816-0.545-1.134c-0.364-0.315-0.858-0.517-1.481-0.601
			c-0.436,0.138-0.804,0.365-1.105,0.682c-0.302,0.316-0.451,0.64-0.451,0.971C297.161,24.331,297.752,24.786,298.936,24.786
			 M299.356,19.71c0.333-0.106,0.626-0.288,0.881-0.538c0.255-0.252,0.381-0.531,0.381-0.844c0-0.353-0.123-0.634-0.375-0.842
			c-0.249-0.209-0.622-0.314-1.121-0.314c-0.457,0-0.813,0.1-1.067,0.297c-0.255,0.199-0.381,0.464-0.381,0.795
			c0,0.365,0.127,0.664,0.381,0.9C298.309,19.401,298.745,19.583,299.356,19.71"/>
		<path fill="#EF8200" d="M308.97,26.715c-1.36,0-2.464-0.45-3.311-1.35c-0.847-0.899-1.27-2.275-1.27-4.129v-0.352
			c0-0.996,0.127-1.872,0.382-2.627c0.255-0.754,0.604-1.351,1.051-1.79c0.447-0.439,0.939-0.767,1.48-0.98
			c0.539-0.214,1.121-0.32,1.745-0.32c1.329,0,2.434,0.469,3.312,1.406c0.877,0.937,1.317,2.353,1.317,4.247v0.29
			c0,1.006-0.13,1.884-0.391,2.634c-0.259,0.75-0.613,1.334-1.059,1.751c-0.448,0.418-0.943,0.726-1.488,0.924
			C310.195,26.615,309.605,26.715,308.97,26.715 M309.002,24.562c0.592,0,1.02-0.262,1.287-0.787
			c0.265-0.524,0.396-1.387,0.396-2.586v-0.354c0-2.346-0.557-3.518-1.668-3.518c-0.569,0-0.983,0.268-1.237,0.804
			c-0.255,0.536-0.382,1.402-0.382,2.602v0.337c0,1.209,0.124,2.096,0.373,2.659C308.021,24.281,308.431,24.562,309.002,24.562"/>
		<path fill="#EF8200" d="M326.704,22.81l0.218,1.992c-1.256,0.332-3.355,0.499-6.295,0.499c-0.446,0-0.868-0.016-1.262-0.049
			v-6.281h4.067V17.14h-4.067v-1.944h6.528v5.703h-4.066v2.297C323.624,23.239,325.25,23.111,326.704,22.81 M331.659,21.397h-1.745
			v7.101h-2.415V14.039h2.415v5.317h1.745V21.397z"/>
		<path fill="#EF8200" d="M333.654,24.136c-0.696-0.989-1.046-2.257-1.046-3.799c0-1.542,0.35-2.809,1.046-3.8
			c0.695-0.99,1.621-1.486,2.773-1.486c1.173,0,2.105,0.491,2.797,1.471c0.69,0.98,1.036,2.247,1.036,3.8
			c0,1.541-0.346,2.811-1.036,3.807c-0.691,0.995-1.624,1.495-2.797,1.495C335.274,25.622,334.349,25.126,333.654,24.136
			 M337.891,20.321c0-0.975-0.135-1.713-0.405-2.217c-0.271-0.503-0.623-0.755-1.059-0.755c-0.416,0-0.759,0.252-1.029,0.755
			c-0.271,0.504-0.406,1.243-0.406,2.217c0,0.985,0.136,1.729,0.406,2.232c0.271,0.502,0.613,0.754,1.029,0.754
			c0.436,0,0.788-0.249,1.059-0.747C337.758,22.064,337.891,21.317,337.891,20.321 M344.094,28.497h-2.431V14.04h2.431V28.497z"/>
		<path fill="#EF8200" d="M358.429,26.858h-12.684v-2.04h12.684V26.858z M357.447,17.188h-10.798v-2.008h10.798V17.188z
			 M357.385,23.18h-10.689v-1.976h1.962l-0.356-3.262l2.444-0.161l0.203,3.422h2.26l0.264-3.454l2.463,0.241l-0.482,3.213h1.933
			V23.18L357.385,23.18z"/>
		<path fill="#EF8200" d="M369.353,23.1l0.17,2.008c-1.027,0.268-2.602,0.391-4.721,0.369l-1.138-0.017v-9.798h5.359v1.991h-2.931
			v5.752C367.385,23.406,368.47,23.304,369.353,23.1 M375.462,28.497h-2.307v-7.068h-0.857v6.458h-2.259V14.248h2.259v5.093h0.857
			V14.04h2.307V28.497z"/>
		<path fill="#EF8200" d="M384.888,18.634h-8.243v-1.878h8.243V18.634z M384.187,21.348c0,0.674-0.325,1.248-0.974,1.718
			c-0.649,0.472-1.473,0.708-2.471,0.708c-1.009,0-1.834-0.235-2.477-0.708c-0.645-0.47-0.968-1.044-0.968-1.718
			c0-0.664,0.323-1.237,0.968-1.719c0.644-0.481,1.47-0.723,2.477-0.723c0.997,0,1.821,0.241,2.471,0.723
			C383.862,20.112,384.187,20.685,384.187,21.348 M378.266,24.225h9.659v4.289h-2.461v-2.329h-7.198V24.225z M383.003,16.305h-4.223
			v-1.943h4.223V16.305z M379.605,21.348c0,0.215,0.112,0.391,0.335,0.53c0.224,0.14,0.497,0.208,0.818,0.208
			c0.323,0,0.595-0.068,0.818-0.208c0.224-0.139,0.336-0.315,0.336-0.53c0-0.226-0.109-0.41-0.327-0.554
			c-0.22-0.145-0.494-0.218-0.827-0.218s-0.608,0.073-0.825,0.218C379.716,20.939,379.605,21.123,379.605,21.348 M389.641,20.401
			h-1.716v3.325h-2.444V14.04h2.444v4.321h1.716V20.401z"/>
	</g>
</g>
</svg>
